<svg data-name="Capa 2" viewBox="0 0 1353.9 616.08" xmlns="http://www.w3.org/2000/svg"><g data-name="Capa 1"><path d="M244.59 8.3h110.29v244.57H244.59zM0 252.87h244.57v110.29H0zm354.89 0h244.57v110.29H354.89zm-.01 110.9H244.59v244.57h110.29z" style="stroke-width:0;fill:#ff7900"/><path d="M1246.6 252.85c-24.12-93.64-108.5-160.6-209.87-160.6s-187.88 66.96-212.37 160.6H717.75C743.59 105.59 873.45 0 1035.85 0s292.12 106.19 318.05 252.85zm-209.87 270.98c100.07 0 184.81-67.47 209.45-160.69h107.48c-26.58 146.1-155.96 252.94-317.77 252.94S744.7 509.29 718.12 363.14h106.74c25.2 93.22 111.79 160.69 211.87 160.69" style="fill:#fff;fill-rule:evenodd;stroke-width:0"/></g></svg>